<svg width="20" height="20" viewBox="0 0 20 20" fill="none" xmlns="http://www.w3.org/2000/svg">
<path d="M18.6818 12.5343C18.1028 14.3756 16.8142 16.6576 14.2917 18.0102C12.7282 18.8485 11.0306 19.1832 9.38315 19.0708L9.42568 0.942787C9.47776 0.938496 9.53005 0.934597 9.58253 0.931107C10.0681 0.927566 10.6665 0.949197 11.28 1.0189C11.5536 1.05 11.8247 1.09008 12.0863 1.14018C12.6587 1.27577 13.2174 1.4664 13.754 1.70955C15.5103 2.5054 17.0281 3.86311 18.0099 5.69422C18.8203 7.20548 19.1598 8.84182 19.0803 10.4369C19.0472 10.9745 18.9268 11.7155 18.6818 12.5343ZM8.42537 1.07476L8.38344 18.9469C5.74393 18.4707 3.34092 16.8379 1.97576 14.2919C-0.398422 9.86419 1.2663 4.35014 5.694 1.97595C6.26708 1.66866 7.24635 1.2881 8.42537 1.07476Z" stroke="url(#paint0_linear_0_497)"/>
<defs>
<linearGradient id="paint0_linear_0_497" x1="0.755987" y1="8.72338" x2="20.9646" y2="9.99209" gradientUnits="userSpaceOnUse">
<stop offset="0.288448" stop-color="#555248"/>
<stop offset="0.780176" stop-color="#1B1A17" stop-opacity="0"/>
</linearGradient>
</defs>
</svg>
